<svg width="150" height="150" viewBox="0 0 150 150" fill="none" xmlns="http://www.w3.org/2000/svg">
<path d="M75 0C33.6 0 0 33.6 0 75C0 116.4 33.6 150 75 150C116.4 150 150 116.4 150 75C150 33.6 116.4 0 75 0ZM75 30C89.475 30 101.25 41.775 101.25 56.25C101.25 70.725 89.475 82.5 75 82.5C60.525 82.5 48.75 70.725 48.75 56.25C48.75 41.775 60.525 30 75 30ZM75 135C59.775 135 41.775 128.85 28.95 113.4C42.087 103.093 58.3022 97.491 75 97.491C91.6978 97.491 107.913 103.093 121.05 113.4C108.225 128.85 90.225 135 75 135Z" fill="#F7F7F7"/>
</svg>
