<svg width="24" height="25" viewBox="0 0 24 25" fill="none" xmlns="http://www.w3.org/2000/svg">
<g clip-path="url(#clip0_2026_29848)">
<path d="M3.93933 17.5858C2.90095 17.5864 2.0572 16.7415 2.05702 15.7033L2.05664 9.93974C2.05627 8.90249 2.89983 8.05781 3.93689 8.05762C4.44108 8.05724 4.9132 8.25281 5.26908 8.60831C5.62495 8.96381 5.8207 9.43668 5.82108 9.93937L5.82052 15.7031C5.82182 15.9502 5.77389 16.1951 5.67954 16.4235C5.58518 16.6518 5.44628 16.8591 5.27095 17.0332C5.09667 17.209 4.8892 17.3483 4.6606 17.4432C4.432 17.538 4.18683 17.5865 3.93933 17.5858ZM3.93783 8.56331C3.17789 8.56293 2.56195 9.18037 2.56177 9.93974L2.5627 15.7027C2.56265 16.0679 2.70761 16.4182 2.96572 16.6766C3.22382 16.9349 3.57395 17.0802 3.93914 17.0805C4.11998 17.0805 4.29905 17.0449 4.46611 16.9757C4.63317 16.9064 4.78495 16.8049 4.91275 16.677C5.04055 16.549 5.14188 16.3972 5.21094 16.23C5.27999 16.0629 5.31543 15.8838 5.3152 15.7029V9.93899C5.31481 9.57397 5.16951 9.22403 4.91124 8.96608C4.65297 8.70812 4.30285 8.56326 3.93783 8.56331Z" fill="white"/>
<path d="M18.7016 8.84878L18.1957 8.84859L5.79843 8.85028L5.29237 8.85047L5.29199 8.34441C5.29087 6.26691 6.42262 4.33472 8.27643 3.19322L7.55568 1.87753C7.46756 1.72341 7.44543 1.52822 7.49681 1.34972C7.52285 1.26069 7.56632 1.17773 7.62471 1.10566C7.68311 1.03359 7.75524 0.973848 7.83693 0.929907C7.93792 0.874301 8.05146 0.845449 8.16674 0.846095C8.42212 0.846095 8.65593 0.984657 8.77931 1.20853L9.53362 2.58272C10.3204 2.29479 11.1519 2.14847 11.9897 2.15053C12.8533 2.15016 13.6815 2.29622 14.4654 2.58384L15.2186 1.20741C15.2786 1.09759 15.3671 1.00599 15.4748 0.942236C15.5824 0.878485 15.7053 0.844948 15.8304 0.845157C15.9456 0.844794 16.059 0.873012 16.1606 0.927282C16.2424 0.971206 16.3146 1.03109 16.3729 1.10339C16.4312 1.17569 16.4744 1.25894 16.5 1.34822C16.5258 1.43626 16.5337 1.52855 16.5235 1.61971C16.5133 1.71087 16.485 1.79908 16.4404 1.87922L15.72 3.19416C17.5708 4.33809 18.7012 6.26878 18.7011 8.34272L18.7016 8.84878ZM15.0367 3.38803L15.9973 1.63397C16.011 1.61193 16.0201 1.58734 16.024 1.56167C16.0279 1.53601 16.0265 1.50983 16.02 1.48471C16.0134 1.4596 16.0018 1.43609 15.9858 1.41561C15.9699 1.39513 15.9499 1.37812 15.9272 1.36561C15.9045 1.3531 15.8794 1.34535 15.8536 1.34284C15.8277 1.34033 15.8017 1.34311 15.7769 1.35101C15.7522 1.35891 15.7294 1.37176 15.7098 1.38879C15.6902 1.40581 15.6743 1.42665 15.663 1.45003L14.6925 3.22191C13.8761 2.85928 12.9621 2.65547 11.9959 2.65641C11.0317 2.65547 10.1194 2.85853 9.30543 3.21984L8.33399 1.45191C8.32214 1.42981 8.30601 1.41029 8.28654 1.39449C8.26707 1.37868 8.24466 1.3669 8.2206 1.35984C8.19654 1.35277 8.17132 1.35056 8.1464 1.35333C8.12147 1.3561 8.09735 1.36379 8.07543 1.37597C7.98224 1.42584 7.94793 1.54303 7.99987 1.63453L8.96081 3.38728C7.07268 4.36116 5.79693 6.21553 5.79806 8.34459L18.1952 8.3431C18.1957 6.21478 16.9222 4.36416 15.0367 3.38803ZM9.17624 6.09872C9.03837 6.09865 8.90618 6.0438 8.80874 5.94626C8.7113 5.84872 8.65661 5.71647 8.65668 5.5786C8.65675 5.44072 8.7116 5.30853 8.80914 5.21109C8.90668 5.11366 9.03893 5.05896 9.17681 5.05903C9.31469 5.05928 9.44686 5.11415 9.54438 5.21164C9.6419 5.30912 9.69682 5.44127 9.69712 5.57916C9.69692 5.71712 9.64194 5.84936 9.54426 5.94679C9.44658 6.04422 9.31421 6.09887 9.17624 6.09872ZM14.8213 6.0976C14.753 6.09772 14.6854 6.08436 14.6223 6.0583C14.5592 6.03224 14.5019 5.99397 14.4536 5.94571C14.4053 5.89744 14.367 5.84011 14.3409 5.77702C14.3148 5.71393 14.3015 5.64631 14.3016 5.57803C14.302 5.4402 14.357 5.30814 14.4543 5.21059C14.5517 5.11304 14.6837 5.0579 14.8215 5.05716C14.9591 5.05829 15.0908 5.11362 15.1879 5.21116C15.285 5.3087 15.3398 5.44058 15.3403 5.57822C15.3403 5.6464 15.3269 5.71392 15.3009 5.77692C15.2748 5.83992 15.2366 5.89717 15.1884 5.9454C15.1402 5.99362 15.083 6.03189 15.02 6.058C14.957 6.08412 14.8895 6.09757 14.8213 6.0976ZM9.69581 24.1548C8.65837 24.1546 7.81406 23.3108 7.81387 22.2727L7.81349 19.7288L7.31887 19.7294C7.05943 19.7303 6.8024 19.6797 6.56268 19.5805C6.32295 19.4813 6.10531 19.3355 5.92237 19.1515C5.73815 18.9686 5.59217 18.7509 5.49293 18.511C5.39369 18.2711 5.34317 18.0139 5.34431 17.7543L5.34243 8.82422V8.31778H5.84849L18.1528 8.31591L18.6591 8.31553V8.8216L18.6604 17.7528C18.6606 18.842 17.7744 19.7283 16.6856 19.7281L16.188 19.7285L16.1886 22.2713C16.1886 23.309 15.3444 24.1537 14.3074 24.1537C14.0601 24.1548 13.815 24.1067 13.5865 24.0122C13.358 23.9176 13.1507 23.7785 12.9765 23.603C12.8008 23.4289 12.6615 23.2216 12.5666 22.9932C12.4718 22.7648 12.4233 22.5198 12.4239 22.2725V19.7285H11.5781V22.2719C11.5777 23.3097 10.7338 24.155 9.69581 24.1548Z" fill="white"/>
<path d="M5.85088 17.7541C5.85046 17.9471 5.88815 18.1383 5.96177 18.3167C6.0354 18.4951 6.14352 18.6572 6.27994 18.7937C6.41635 18.9302 6.57837 19.0385 6.75671 19.1122C6.93505 19.186 7.1262 19.2238 7.3192 19.2235H8.31913L8.32026 22.273C8.32007 23.0324 8.93694 23.6495 9.69557 23.6497C9.87638 23.6496 10.0554 23.6138 10.2224 23.5446C10.3894 23.4753 10.5411 23.3737 10.6689 23.2458C10.7967 23.1179 10.898 22.966 10.9671 22.7989C11.0361 22.6318 11.0716 22.4527 11.0714 22.2719L11.0716 19.2234L12.9296 19.2228L12.9294 22.2721C12.9301 23.0317 13.5478 23.6495 14.3062 23.648C15.0667 23.6485 15.6832 23.0307 15.683 22.271L15.6821 19.2224L16.6858 19.2222C17.4956 19.2224 18.1543 18.5645 18.1543 17.7528L18.1526 8.82123L5.84863 8.82348L5.85088 17.7541ZM20.0617 17.5835C19.0237 17.5837 18.1794 16.7401 18.1796 15.7017L18.1781 9.93835C18.1784 8.90016 19.0214 8.05566 20.0589 8.05566C21.0976 8.05548 21.9425 8.89979 21.9423 9.93779L21.9429 15.7008C21.9431 16.7384 21.0995 17.5837 20.0617 17.5835ZM20.0598 8.56173C19.2999 8.56098 18.6841 9.17804 18.6841 9.93835L18.6847 15.7015C18.6846 15.8823 18.7201 16.0614 18.7893 16.2284C18.8584 16.3955 18.9598 16.5472 19.0877 16.675C19.2156 16.8029 19.3674 16.9042 19.5344 16.9733C19.7015 17.0424 19.8805 17.0779 20.0613 17.0778C20.2421 17.0778 20.4211 17.0422 20.5881 16.973C20.7551 16.9038 20.9068 16.8023 21.0345 16.6745C21.1623 16.5466 21.2636 16.3948 21.3327 16.2278C21.4018 16.0608 21.4373 15.8817 21.4372 15.701L21.4357 9.93798C21.4358 9.75724 21.4003 9.57825 21.3312 9.41125C21.2621 9.24424 21.1608 9.09249 21.033 8.96468C20.9052 8.83686 20.7535 8.73549 20.5865 8.66634C20.4195 8.5972 20.2406 8.56165 20.0598 8.56173Z" fill="white"/>
<path d="M3.93856 8.56335C3.17862 8.56297 2.56269 9.18041 2.5625 9.93979L2.56344 15.7028C2.56331 15.8836 2.59884 16.0627 2.66797 16.2298C2.73711 16.3969 2.8385 16.5487 2.96636 16.6765C3.09421 16.8044 3.24601 16.9058 3.41309 16.975C3.58017 17.0441 3.75924 17.0797 3.94006 17.0796C4.12086 17.0798 4.29993 17.0443 4.46699 16.9752C4.63406 16.9061 4.78585 16.8047 4.91366 16.6768C5.04147 16.5489 5.14279 16.3971 5.21182 16.23C5.28085 16.0629 5.31623 15.8838 5.31594 15.703V9.93903C5.31554 9.57401 5.17024 9.22407 4.91197 8.96612C4.6537 8.70817 4.30359 8.5633 3.93856 8.56335ZM15.0371 3.38797L15.9976 1.63391C16.0221 1.58941 16.0279 1.53703 16.0138 1.48824C15.9997 1.43946 15.9669 1.39825 15.9224 1.37366C15.8779 1.34958 15.8257 1.34409 15.7771 1.35839C15.7286 1.37269 15.6877 1.40561 15.6633 1.44997L14.693 3.22241C13.8766 2.85903 12.9629 2.65541 11.9962 2.65635C11.0321 2.65541 10.1188 2.85847 9.30575 3.21978L8.33431 1.45185C8.32245 1.42978 8.30633 1.41028 8.28689 1.39449C8.26744 1.37869 8.24505 1.36692 8.22102 1.35984C8.19699 1.35276 8.17179 1.35051 8.14689 1.35324C8.12198 1.35597 8.09787 1.36361 8.07594 1.37572C8.0538 1.38756 8.03424 1.40369 8.01841 1.42317C8.00257 1.44265 7.99079 1.4651 7.98373 1.48919C7.97668 1.51329 7.9745 1.53854 7.97733 1.56349C7.98015 1.58843 7.98792 1.61257 8.00019 1.63447L8.96112 3.38741C7.073 4.3611 5.79725 6.21547 5.79837 8.34454L18.1955 8.34304C18.1961 6.21472 16.9226 4.3641 15.0371 3.38797ZM9.17656 6.09866C9.03869 6.09859 8.9065 6.04374 8.80906 5.9462C8.71162 5.84866 8.65693 5.71641 8.657 5.57853C8.65707 5.44066 8.71191 5.30847 8.80946 5.21103C8.907 5.11359 9.03925 5.0589 9.17712 5.05897C9.31501 5.05922 9.44718 5.11409 9.5447 5.21158C9.64222 5.30906 9.69714 5.44121 9.69744 5.5791C9.69724 5.71706 9.64226 5.8493 9.54458 5.94673C9.4469 6.04416 9.31453 6.09881 9.17656 6.09866ZM14.8216 6.09753C14.7534 6.09758 14.6858 6.08418 14.6227 6.05809C14.5596 6.032 14.5023 5.99373 14.4541 5.94548C14.4058 5.89723 14.3675 5.83993 14.3414 5.77687C14.3153 5.71381 14.3019 5.64622 14.3019 5.57797C14.3026 5.44022 14.3576 5.3083 14.4549 5.2108C14.5522 5.1133 14.6841 5.05808 14.8218 5.0571C14.9594 5.05823 15.0911 5.11356 15.1882 5.2111C15.2853 5.30864 15.3401 5.44052 15.3406 5.57816C15.3407 5.64635 15.3273 5.71389 15.3013 5.77692C15.2752 5.83994 15.237 5.89721 15.1888 5.94545C15.1406 5.99368 15.0834 6.03195 15.0204 6.05804C14.9573 6.08414 14.8898 6.09756 14.8216 6.09753ZM5.849 8.82341L5.85106 17.755C5.85084 17.9479 5.88867 18.1389 5.9624 18.3172C6.03612 18.4954 6.14428 18.6574 6.28069 18.7938C6.4171 18.9302 6.57908 19.0383 6.75734 19.112C6.93561 19.1857 7.12666 19.2235 7.31956 19.2233L8.3195 19.2237L8.32062 22.2732C8.32044 23.0325 8.93769 23.6498 9.69594 23.6498C10.4564 23.6498 11.0726 23.032 11.0728 22.2722L11.072 19.2235L12.9299 19.2229L12.9307 22.2722C12.9307 23.031 13.5481 23.6496 14.3066 23.6481C15.0671 23.6487 15.6836 23.0308 15.6834 22.2711L15.6824 19.2225L16.6859 19.2218C16.8789 19.2218 17.0699 19.1838 17.2481 19.11C17.4264 19.0362 17.5883 18.928 17.7248 18.7916C17.8612 18.6552 17.9694 18.4933 18.0433 18.3151C18.1171 18.1369 18.1552 17.9458 18.1552 17.7529L18.1535 8.82135L5.849 8.82341ZM21.4366 9.93772C21.4366 9.75698 21.4011 9.578 21.3319 9.41101C21.2627 9.24402 21.1613 9.0923 21.0335 8.96451C20.9057 8.83672 20.7539 8.73537 20.5869 8.66625C20.4199 8.59713 20.2409 8.56159 20.0602 8.56166C19.3002 8.56091 18.6845 9.17797 18.6845 9.93828L18.6856 15.7017C18.6855 15.8824 18.721 16.0614 18.7901 16.2284C18.8592 16.3954 18.9606 16.5472 19.0884 16.675C19.2162 16.8028 19.3679 16.9041 19.5349 16.9732C19.702 17.0423 19.8809 17.0778 20.0617 17.0777C20.2425 17.0777 20.4215 17.0421 20.5885 16.973C20.7555 16.9038 20.9072 16.8023 21.035 16.6745C21.1627 16.5466 21.2641 16.3948 21.3331 16.2278C21.4022 16.0607 21.4377 15.8817 21.4376 15.7009L21.4366 9.93772Z" fill="#A4C439"/>
</g>
<defs>
<clipPath id="clip0_2026_29848">
<rect width="24" height="24" fill="white" transform="translate(0 0.5)"/>
</clipPath>
</defs>
</svg>
