<svg width="24" height="25" viewBox="0 0 24 25" fill="none" xmlns="http://www.w3.org/2000/svg">
<path d="M18.0375 13.1881C18.0099 10.4026 20.3202 9.06615 20.4238 9.00015C19.1249 7.10964 17.102 6.84979 16.3808 6.82091C14.6591 6.64767 13.0217 7.8301 12.147 7.8301C11.2751 7.8301 9.92652 6.84704 8.49916 6.87316C6.62272 6.90066 4.89275 7.95934 3.92551 9.63124C1.97584 12.997 3.42669 17.9852 5.32662 20.7144C6.25517 22.0508 7.36196 23.5522 8.81558 23.4986C10.2153 23.4436 10.7445 22.5967 12.4372 22.5967C14.1299 22.5967 14.6052 23.4986 16.0864 23.4697C17.5926 23.4422 18.5474 22.1072 19.469 20.7667C20.5357 19.2158 20.9737 17.7157 21 17.6387C20.9668 17.6236 18.0624 16.5168 18.0333 13.1895L18.0375 13.1881ZM15.2546 5.0129C16.0256 4.08209 16.5466 2.78967 16.4042 1.5C15.2933 1.54537 13.9461 2.23695 13.1488 3.16639C12.433 3.99134 11.8071 5.30713 11.9743 6.57068C13.2151 6.66692 14.4822 5.94372 15.2532 5.01428L15.2546 5.0129Z" fill="#242424"/>
</svg>
