<svg width="25" height="25" viewBox="0 0 25 25" xmlns="http://www.w3.org/2000/svg">
<path fill-rule="evenodd" clip-rule="evenodd" d="M10.2273 3.33333C10.1605 3.33333 10.1004 3.35968 10.0593 3.40024C10.0189 3.44011 10 3.48974 10 3.53704V5.98148H15V3.53704C15 3.48974 14.9811 3.44011 14.9407 3.40024C14.8996 3.35968 14.8395 3.33333 14.7727 3.33333H10.2273ZM16.8182 5.98148V3.53704C16.8182 2.99005 16.5976 2.46974 16.2118 2.08939C15.8267 1.70973 15.3087 1.5 14.7727 1.5H10.2273C9.69129 1.5 9.17327 1.70973 8.78818 2.08939C8.4024 2.46974 8.18182 2.99005 8.18182 3.53704V5.98148H4.55627C4.54976 5.98141 4.54323 5.98141 4.53669 5.98148H3.40909C2.90701 5.98148 2.5 6.39189 2.5 6.89815C2.5 7.40441 2.90701 7.81482 3.40909 7.81482H3.71055L4.77301 20.385C4.7842 21.2136 5.12306 22.0019 5.71192 22.5825C6.31012 23.1722 7.11718 23.5 7.95455 23.5H17.0455C17.8828 23.5 18.6899 23.1722 19.2881 22.5825C19.8769 22.0019 20.2158 21.2136 20.227 20.385L21.2895 7.81482H21.5909C22.093 7.81482 22.5 7.40441 22.5 6.89815C22.5 6.39189 22.093 5.98148 21.5909 5.98148H20.4633C20.4568 5.98141 20.4502 5.98141 20.4437 5.98148H16.8182ZM5.53532 7.81482L6.58763 20.2647C6.58981 20.2906 6.59091 20.3166 6.59091 20.3426C6.59091 20.687 6.7295 21.0216 6.98305 21.2716C7.23729 21.5223 7.58638 21.6667 7.95455 21.6667H17.0455C17.4136 21.6667 17.7627 21.5223 18.017 21.2716C18.2705 21.0216 18.4091 20.687 18.4091 20.3426C18.4091 20.3166 18.4102 20.2906 18.4124 20.2647L19.4647 7.81482H5.53532ZM10.2273 10.463C10.7294 10.463 11.1364 10.8734 11.1364 11.3796V18.1019C11.1364 18.6081 10.7294 19.0185 10.2273 19.0185C9.7252 19.0185 9.31818 18.6081 9.31818 18.1019V11.3796C9.31818 10.8734 9.7252 10.463 10.2273 10.463ZM14.7727 10.463C15.2748 10.463 15.6818 10.8734 15.6818 11.3796V18.1019C15.6818 18.6081 15.2748 19.0185 14.7727 19.0185C14.2706 19.0185 13.8636 18.6081 13.8636 18.1019V11.3796C13.8636 10.8734 14.2706 10.463 14.7727 10.463Z"/>
</svg>
