<svg width="150" height="150" viewBox="0 0 150 150" fill="none" xmlns="http://www.w3.org/2000/svg">
<path d="M75 0C55.1088 0 36.0322 7.90176 21.967 21.967C7.90176 36.0322 0 55.1088 0 75C0 94.8912 7.90176 113.968 21.967 128.033C36.0322 142.098 55.1088 150 75 150C94.8912 150 113.968 142.098 128.033 128.033C142.098 113.968 150 94.8912 150 75C150 55.1088 142.098 36.0322 128.033 21.967C113.968 7.90176 94.8912 0 75 0ZM103.833 99.5833C103.833 111.833 97.1667 127.083 70 138.75C72.5 104 49 108 43.3333 97.0833C43.8494 92.5671 45.4939 88.2534 48.1153 84.5397C50.7367 80.8261 54.2507 77.832 58.3333 75.8333C45.4014 73.6152 33.341 67.8447 23.5 59.1667C23.9167 63.0833 25.825 66.7 28.8333 69.25C22.3159 66.7933 16.6847 62.4392 12.6667 56.75C16.6398 43.6367 24.586 32.0802 35.4081 23.6763C46.2303 15.2723 59.3946 10.4354 73.0833 9.83333C66.0833 21.3333 60.5833 44.25 73.0833 56.25C60.25 58.3333 52.1667 41.6667 45.0833 48.25C35.6667 57.0833 47.8333 69.1667 73.5833 73.9167C101 78.8333 104.083 87.0833 103.833 99.5833ZM115 66.25C112.333 57 120.167 47.6667 129.083 40.0833C134.652 48.1102 138.197 57.3646 139.416 67.0575C140.634 76.7505 139.491 86.5944 136.083 95.75C129.667 80 118 76.4167 115 66V66.25Z" fill="white"/>
</svg>
