<svg width="300" height="300" viewBox="0 0 300 300" fill="none" xmlns="http://www.w3.org/2000/svg">
<path fill-rule="evenodd" clip-rule="evenodd" d="M149.721 32.144C140.764 31.9822 131.862 33.5885 123.525 36.871C115.189 40.1535 107.582 45.0476 101.139 51.2735C94.6961 57.4993 89.5443 64.9345 85.9783 73.1536C82.4124 81.3727 80.5022 90.2143 80.3571 99.1725V192.858C80.3571 198.541 78.0995 203.992 74.0809 208.011C70.0622 212.029 64.6118 214.287 58.9286 214.287H32.1429C23.618 214.287 15.4424 210.9 9.41442 204.872C3.38647 198.844 0 190.669 0 182.144L0 139.287C0 130.762 3.38647 122.586 9.41442 116.558C15.4424 110.53 23.618 107.144 32.1429 107.144H48.2143V98.7868C48.4098 85.6167 51.1978 72.614 56.4191 60.5215C61.6404 48.429 69.1927 37.4835 78.6447 28.3101C88.0967 19.1367 99.2632 11.9152 111.506 7.05784C123.75 2.20054 136.83 -0.197361 150 0.00110087C163.17 -0.197361 176.25 2.20054 188.494 7.05784C200.737 11.9152 211.903 19.1367 221.355 28.3101C230.807 37.4835 238.36 48.429 243.581 60.5215C248.802 72.614 251.59 85.6167 251.786 98.7868V107.144H267.857C276.382 107.144 284.558 110.53 290.586 116.558C296.614 122.586 300 130.762 300 139.287V182.144C300 190.669 296.614 198.844 290.586 204.872C284.558 210.9 276.382 214.287 267.857 214.287H251.786V225.001C251.788 239.482 246.459 253.456 236.816 264.258C227.172 275.06 213.888 281.933 199.5 283.565C196.706 288.554 192.631 292.707 187.697 295.596C182.762 298.486 177.147 300.006 171.429 300.001H139.286C130.761 300.001 122.585 296.615 116.557 290.587C110.529 284.559 107.143 276.383 107.143 267.858C107.143 259.333 110.529 251.158 116.557 245.13C122.585 239.102 130.761 235.715 139.286 235.715H171.429C183.043 235.715 193.221 241.865 198.857 251.101C204.763 249.744 210.035 246.423 213.81 241.683C217.586 236.942 219.642 231.061 219.643 225.001V99.1511C219.496 90.1468 217.566 81.261 213.963 73.0072C210.361 64.7535 205.159 57.2956 198.657 51.0647C192.155 44.8338 184.483 39.9535 176.083 36.7058C167.684 33.4582 158.724 31.9077 149.721 32.144Z" fill="white" fill-opacity="0.5"/>
</svg>
