<svg width="16" height="17" viewBox="0 0 16 17" fill="none" xmlns="http://www.w3.org/2000/svg">
<path fill-rule="evenodd" clip-rule="evenodd" d="M3.00997 3.51027C4.0837 2.43653 5.54 1.83331 7.0585 1.83331C8.57699 1.83331 10.0333 2.43653 11.107 3.51027C12.1808 4.58401 12.784 6.04031 12.784 7.5588C12.784 8.89319 12.3182 10.1795 11.4766 11.2005L14.5055 14.2294C14.7199 14.4438 14.7199 14.7914 14.5055 15.0058C14.2911 15.2202 13.9435 15.2202 13.7291 15.0058L10.7002 11.9769C9.67924 12.8185 8.39288 13.2843 7.0585 13.2843C5.54 13.2843 4.0837 12.6811 3.00997 11.6073C1.93623 10.5336 1.33301 9.0773 1.33301 7.5588C1.33301 6.04031 1.93623 4.58401 3.00997 3.51027ZM7.0585 2.93135C5.83122 2.93135 4.65421 3.41889 3.7864 4.2867C2.91858 5.15452 2.43105 6.33153 2.43105 7.5588C2.43105 8.78608 2.91858 9.96309 3.7864 10.8309C4.65421 11.6987 5.83122 12.1863 7.0585 12.1863C8.28577 12.1863 9.46278 11.6987 10.3306 10.8309C11.1984 9.96309 11.6859 8.78608 11.6859 7.5588C11.6859 6.33153 11.1984 5.15452 10.3306 4.2867C9.46278 3.41889 8.28577 2.93135 7.0585 2.93135Z" fill="#B1B1B1"/>
</svg>
