<svg width="220" height="200" viewBox="0 0 220 200" fill="none" xmlns="http://www.w3.org/2000/svg">
<path d="M191.848 61.5515C199.591 82.8247 210.446 124.379 196.738 129.369C195.71 129.743 191.791 129.64 190.86 129.214C179.588 124.904 165.74 98.5868 156.892 74.2746C148.043 49.9624 141.735 20.9014 147.598 10.3542C148.038 9.4294 150.974 6.83136 152.002 6.45715C165.71 1.46768 184.105 40.2783 191.848 61.5515Z" fill="white"/>
<path d="M149.996 76.1691C152.455 82.9232 163.243 111.504 176.779 126.464C147.611 122.547 117.48 121.276 95.365 129.326C94.0041 129.821 92.3029 130.44 90.942 130.935C90.6961 130.26 90.7905 129.461 90.6676 129.123L70.5098 73.7399C70.264 73.0645 70.0182 72.3891 69.8952 72.0514C71.2562 71.5561 72.6171 71.0607 74.3183 70.4415C96.4335 62.3923 118.575 41.7128 138.524 20.3017C137.431 40.5866 147.538 69.4151 149.996 76.1691ZM64.0454 76.0928L84.2032 131.476C84.8178 133.164 84.0714 135.348 82.03 136.091C64.6781 142.407 45.6891 133.638 39.4205 116.415C33.1519 99.1927 42.062 80.2697 59.4139 73.9541C61.1151 73.3349 63.4308 74.4043 64.0454 76.0928ZM87.5218 140.594L97.7237 168.623C100.059 175.039 96.9221 182.3 90.1175 184.777C83.3128 187.254 76.5829 183.584 74.2476 177.168L62.202 144.073C69.3381 145.682 77.2204 145.108 84.3653 142.508C85.386 142.136 86.6241 141.303 87.5218 140.594Z" fill="white"/>
<path d="M33.9205 118.585C36.745 126.346 41.7854 132.917 48.3394 137.41C37.9476 140.046 26.736 134.192 22.929 123.732L22.0694 121.37C18.2625 110.911 23.0883 99.2199 32.7433 94.5595C30.7331 102.551 31.096 110.825 33.9205 118.585Z" fill="white"/>
</svg>
