<svg width="25" height="25" viewBox="0 0 25 25" xmlns="http://www.w3.org/2000/svg">
<path fill-rule="evenodd" clip-rule="evenodd" d="M20.3596 3.61777C20.1197 3.52438 19.8627 3.48155 19.6049 3.49219C19.3471 3.50283 19.0946 3.56668 18.8636 3.67942C18.6325 3.79215 18.4282 3.95119 18.2634 4.14599C18.2455 4.16714 18.2267 4.18754 18.2071 4.20713L16.9142 5.50003L19.5 8.08581L20.7929 6.79292C20.8158 6.77003 20.8398 6.74827 20.8648 6.72771C21.0625 6.56507 21.2235 6.3637 21.3378 6.13672C21.4522 5.90977 21.5174 5.66198 21.5298 5.40911C21.5422 5.15624 21.5014 4.90346 21.4099 4.66676C21.3183 4.43006 21.1779 4.21437 20.9972 4.03365C20.8165 3.85292 20.5994 3.71115 20.3596 3.61777ZM18.0858 9.50003L15.5 6.91424L4.89491 17.5194L3.92524 21.0748L7.4807 20.1051L18.0858 9.50003ZM14.7926 4.79323L3.29292 16.2929C3.16986 16.416 3.08105 16.569 3.03526 16.7369L1.53526 22.2369C1.44084 22.5831 1.53917 22.9534 1.79292 23.2071C2.04667 23.4609 2.41693 23.5592 2.76314 23.4648L8.26314 21.9648C8.43104 21.919 8.58407 21.8302 8.70713 21.7071L22.1754 8.23889C22.5692 7.90592 22.892 7.4971 23.124 7.03646C23.3639 6.56026 23.5014 6.03932 23.5274 5.5069C23.5535 4.97448 23.4676 4.44264 23.2752 3.94537C23.0829 3.44812 22.7886 2.99662 22.4114 2.61944C22.0343 2.24228 21.5825 1.94769 21.0852 1.75406C20.588 1.56043 20.0557 1.47189 19.5224 1.49389C18.9891 1.5159 18.4661 1.64799 17.9865 1.882C17.5203 2.10947 17.105 2.42851 16.7657 2.8201L14.7926 4.79323Z" />
</svg>
