<svg width="150" height="150" viewBox="0 0 150 150" fill="none" xmlns="http://www.w3.org/2000/svg">
<path fill-rule="evenodd" clip-rule="evenodd" d="M106.027 20.462L119.752 34.1871C139.92 54.3622 150 64.4423 150 76.9674C150 89.4999 139.92 99.58 119.752 119.748C99.5772 139.923 89.4971 150.003 76.9645 150.003C64.4394 150.003 54.3519 139.923 34.1842 119.755L20.4591 106.03C8.87156 94.435 3.07402 88.6449 0.921503 81.1224C-1.23851 73.5998 0.606501 65.6123 4.29653 49.6447L6.41904 40.4346C9.51656 26.9945 11.0691 20.2745 15.6666 15.6694C20.2716 11.0719 26.9917 9.5194 40.4318 6.42188L49.6418 4.29187C65.6169 0.609345 73.597 -1.23567 81.1195 0.916846C88.6421 3.07686 94.4396 8.8744 106.027 20.462ZM68.5945 92.4625C63.5469 87.4224 63.5844 80.1774 66.6069 74.4398C65.8587 73.359 65.5126 72.0503 65.6287 70.7409C65.7449 69.4315 66.316 68.2041 67.2428 67.2719C68.1697 66.3397 69.3938 65.7616 70.7025 65.6379C72.0112 65.5142 73.3219 65.8527 74.407 66.5948C76.957 65.2448 79.7545 64.5248 82.5445 64.5548C84.0364 64.5687 85.4616 65.1747 86.5067 66.2394C87.5517 67.3042 88.131 68.7405 88.1171 70.2323C88.1032 71.7242 87.4972 73.1494 86.4324 74.1944C85.3677 75.2395 83.9314 75.8188 82.4395 75.8049C80.7029 75.869 79.0616 76.6155 77.872 77.8824C74.9695 80.7849 75.727 83.6949 76.5445 84.5124C77.3695 85.3299 80.272 86.0874 83.1746 83.1849C89.0546 77.3049 99.2097 75.3548 105.712 81.8574C110.76 86.9049 110.722 94.15 107.7 99.8875C108.443 100.969 108.786 102.275 108.667 103.582C108.549 104.889 107.978 106.113 107.052 107.043C106.127 107.973 104.905 108.55 103.599 108.675C102.293 108.799 100.984 108.463 99.8997 107.725C96.5339 109.571 92.63 110.186 88.8596 109.465C87.3976 109.165 86.1148 108.296 85.2933 107.05C84.4719 105.804 84.1792 104.282 84.4796 102.82C84.7799 101.358 85.6488 100.075 86.895 99.2538C88.1411 98.4324 89.6626 98.1396 91.1246 98.44C92.4521 98.7175 94.5971 98.2825 96.4346 96.445C99.3372 93.535 98.5797 90.6325 97.7622 89.8149C96.9371 88.9974 94.0346 88.2399 91.1321 91.1425C85.2521 97.0225 75.097 98.9725 68.5945 92.4625ZM60.1494 62.1998C61.5421 60.8066 62.6467 59.1528 63.4002 57.3327C64.1538 55.5126 64.5414 53.5619 64.5411 51.592C64.5407 49.6222 64.1524 47.6716 63.3982 45.8518C62.644 44.032 61.5388 42.3785 60.1456 40.9859C58.7525 39.5932 57.0986 38.4886 55.2786 37.735C53.4585 36.9815 51.5078 36.5939 49.5379 36.5942C47.568 36.5946 45.6175 36.9829 43.7977 37.7371C41.9779 38.4912 40.3244 39.5964 38.9318 40.9896C36.1191 43.8033 34.5394 47.619 34.5401 51.5973C34.5408 55.5757 36.1219 59.3909 38.9355 62.2035C41.7491 65.0161 45.5648 66.5959 49.5432 66.5952C53.5216 66.5945 57.3368 65.0134 60.1494 62.1998Z" fill="#F7F7F7"/>
</svg>
