<svg width="25" height="25" viewBox="0 0 25 25" fill="none" xmlns="http://www.w3.org/2000/svg">
<path d="M23.5 5.5H2.5V19.5002H23.5V5.5Z" fill="#F0F0F0"/>
<path d="M23.5 7.24988H2.5V8.99973H23.5V7.24988Z" fill="#D80027"/>
<path d="M23.5 10.75H2.5V12.4999H23.5V10.75Z" fill="#D80027"/>
<path d="M23.5 14.2497H2.5V15.9995H23.5V14.2497Z" fill="#D80027"/>
<path d="M23.5 17.7499H2.5V19.4997H23.5V17.7499Z" fill="#D80027"/>
<path d="M13 5.5H2.5V13.0385H13V5.5Z" fill="#2E52B2"/>
<path d="M6.595 8.58789L6.42589 9.10813H5.87891L6.32151 9.42949L6.1524 9.94969L6.595 9.62833L7.03731 9.94969L6.86824 9.42949L7.31084 9.10813H6.76382L6.595 8.58789Z" fill="#F0F0F0"/>
<path d="M6.76382 10.986L6.595 10.4658L6.42589 10.986H5.87891L6.32151 11.3074L6.1524 11.8276L6.595 11.5062L7.03731 11.8276L6.86824 11.3074L7.31084 10.986H6.76382Z" fill="#F0F0F0"/>
<path d="M4.45136 10.9858L4.2825 10.4656L4.11339 10.9858H3.56641L4.00901 11.3072L3.8399 11.8274L4.2825 11.506L4.72485 11.8274L4.55579 11.3072L4.9983 10.9858H4.45136Z" fill="#F0F0F0"/>
<path d="M4.2825 8.58826L4.11339 9.1085H3.56641L4.00901 9.42986L3.8399 9.95006L4.2825 9.6287L4.72485 9.95006L4.55579 9.42986L4.9983 9.1085H4.45136L4.2825 8.58826Z" fill="#F0F0F0"/>
<path d="M6.595 6.71094L6.42589 7.23122H5.87891L6.32151 7.55262L6.1524 8.07282L6.595 7.75142L7.03731 8.07282L6.86824 7.55262L7.31084 7.23122H6.76382L6.595 6.71094Z" fill="#F0F0F0"/>
<path d="M4.2825 6.71069L4.11339 7.23098H3.56641L4.00901 7.55238L3.8399 8.07258L4.2825 7.75118L4.72485 8.07258L4.55579 7.55238L4.9983 7.23098H4.45136L4.2825 6.71069Z" fill="#F0F0F0"/>
<path d="M8.90648 8.58789L8.73741 9.10813H8.19043L8.63299 9.42949L8.46396 9.94969L8.90648 9.62833L9.34887 9.94969L9.17977 9.42949L9.62237 9.10813H9.07538L8.90648 8.58789Z" fill="#F0F0F0"/>
<path d="M9.07538 10.986L8.90648 10.4658L8.73741 10.986H8.19043L8.63299 11.3074L8.46396 11.8276L8.90648 11.5062L9.34887 11.8276L9.17977 11.3074L9.62237 10.986H9.07538Z" fill="#F0F0F0"/>
<path d="M11.3869 10.986L11.218 10.4658L11.0489 10.986H10.502L10.9445 11.3074L10.7754 11.8276L11.218 11.5062L11.6604 11.8276L11.4912 11.3074L11.9338 10.986H11.3869Z" fill="#F0F0F0"/>
<path d="M11.218 8.58789L11.0489 9.10813H10.502L10.9445 9.42949L10.7754 9.94969L11.218 9.62833L11.6604 9.94969L11.4912 9.42949L11.9338 9.10813H11.3869L11.218 8.58789Z" fill="#F0F0F0"/>
<path d="M8.90648 6.71094L8.73741 7.23122H8.19043L8.63299 7.55262L8.46396 8.07282L8.90648 7.75142L9.34887 8.07282L9.17977 7.55262L9.62237 7.23122H9.07538L8.90648 6.71094Z" fill="#F0F0F0"/>
<path d="M11.218 6.71094L11.0489 7.23122H10.502L10.9445 7.55262L10.7754 8.07282L11.218 7.75142L11.6604 8.07282L11.4912 7.55262L11.9338 7.23122H11.3869L11.218 6.71094Z" fill="#F0F0F0"/>
</svg>
