<svg width="150" height="150" viewBox="0 0 150 150" fill="none" xmlns="http://www.w3.org/2000/svg">
<g opacity="0.5">
<path d="M2 18.8889V121.174C2 127.758 4.61612 134.073 9.27286 138.729C13.9296 143.384 20.2455 146 26.8311 146H124.169C130.755 146 137.07 143.384 141.727 138.729C146.384 134.073 149 127.758 149 121.174V51.6597C149 45.9369 147.022 40.3898 143.403 35.9565C139.783 31.5232 134.743 28.4759 129.135 27.3299V19.8819C129.135 15.4046 127.356 11.1106 124.19 7.94461C121.023 4.77863 116.728 3 112.25 3H18.8851C14.5786 2.99964 10.4347 4.64448 7.30112 7.59804C4.16754 10.5516 2.28114 14.5906 2.02781 18.8889H2ZM119.203 19.8819V26.8333H18.8851C17.0412 26.8333 15.2727 26.101 13.9688 24.7973C12.6649 23.4937 11.9324 21.7256 11.9324 19.8819C11.9324 18.0383 12.6649 16.2702 13.9688 14.9666C15.2727 13.6629 17.0412 12.9306 18.8851 12.9306H112.25C116.092 12.9306 119.203 16.0448 119.203 19.8819ZM106.291 82.4444H124.169C125.486 82.4444 126.749 82.9676 127.681 83.8987C128.612 84.8299 129.135 86.0928 129.135 87.4097C129.135 88.7266 128.612 89.9895 127.681 90.9207C126.749 91.8519 125.486 92.375 124.169 92.375H106.291C104.973 92.375 103.71 91.8519 102.779 90.9207C101.848 89.9895 101.324 88.7266 101.324 87.4097C101.324 86.0928 101.848 84.8299 102.779 83.8987C103.71 82.9676 104.973 82.4444 106.291 82.4444Z" fill="white"/>
</g>
</svg>
