<svg width="24" height="25" viewBox="0 0 24 25" xmlns="http://www.w3.org/2000/svg">
<path fill-rule="evenodd" clip-rule="evenodd" d="M12 2.71301C12.5523 2.71301 13 3.16073 13 3.71301V15.738C13 16.2903 12.5523 16.738 12 16.738C11.4477 16.738 11 16.2903 11 15.738V3.71301C11 3.16073 11.4477 2.71301 12 2.71301Z" />
<path fill-rule="evenodd" clip-rule="evenodd" d="M6.66789 10.7869C7.05842 10.3964 7.69158 10.3964 8.08211 10.7869L12 14.7048L15.9179 10.7869C16.3084 10.3964 16.9416 10.3964 17.3321 10.7869C17.7226 11.1774 17.7226 11.8106 17.3321 12.2011L13.3623 16.1709C12.9997 16.5297 12.5101 16.7309 12 16.7309C11.4899 16.7309 11.0003 16.5297 10.6377 16.1709L10.6339 16.1671L6.66789 12.2011C6.27737 11.8106 6.27737 11.1774 6.66789 10.7869Z" />
<path fill-rule="evenodd" clip-rule="evenodd" d="M2.75 13.35C3.30228 13.35 3.75 13.7978 3.75 14.35V18.975C3.75 19.3233 3.88833 19.6572 4.13457 19.9035C4.3808 20.1497 4.71477 20.288 5.063 20.288H18.937C19.2852 20.288 19.6192 20.1497 19.8654 19.9035C20.1117 19.6572 20.25 19.3233 20.25 18.975V14.35C20.25 13.7978 20.6977 13.35 21.25 13.35C21.8023 13.35 22.25 13.7978 22.25 14.35V18.975C22.25 19.8537 21.901 20.6964 21.2796 21.3177C20.6583 21.939 19.8157 22.288 18.937 22.288H5.063C4.18434 22.288 3.34166 21.939 2.72036 21.3177C2.09905 20.6964 1.75 19.8537 1.75 18.975V14.35C1.75 13.7978 2.19772 13.35 2.75 13.35Z" />
</svg>
