<svg width="24" height="24" viewBox="0 0 24 24" xmlns="http://www.w3.org/2000/svg">
<path fill-rule="evenodd" clip-rule="evenodd" d="M3 2C3.55228 2 4 2.44772 4 3V19C4 19.2652 4.10536 19.5196 4.29289 19.7071C4.48043 19.8946 4.73478 20 5 20H21C21.5523 20 22 20.4477 22 21C22 21.5523 21.5523 22 21 22H5C4.20435 22 3.44129 21.6839 2.87868 21.1213C2.31607 20.5587 2 19.7957 2 19V3C2 2.44772 2.44772 2 3 2Z" />
<path fill-rule="evenodd" clip-rule="evenodd" d="M21.7071 7.29289C22.0976 7.68342 22.0976 8.31658 21.7071 8.70711L15.7071 14.7071C15.3166 15.0976 14.6834 15.0976 14.2929 14.7071L11 11.4142L7.70711 14.7071C7.31658 15.0976 6.68342 15.0976 6.29289 14.7071C5.90237 14.3166 5.90237 13.6834 6.29289 13.2929L10.2929 9.29289C10.6834 8.90237 11.3166 8.90237 11.7071 9.29289L15 12.5858L20.2929 7.29289C20.6834 6.90237 21.3166 6.90237 21.7071 7.29289Z" />
<path fill-rule="evenodd" clip-rule="evenodd" d="M17 8C17 7.44772 17.4477 7 18 7H21C21.5523 7 22 7.44772 22 8V11C22 11.5523 21.5523 12 21 12C20.4477 12 20 11.5523 20 11V9H18C17.4477 9 17 8.55228 17 8Z" />
</svg>
