<svg width="24" height="24" viewBox="0 0 24 24"  xmlns="http://www.w3.org/2000/svg">
<path fill-rule="evenodd" clip-rule="evenodd" d="M12.0002 4.04721L21.553 8.82361C22.047 9.0706 22.6477 8.87037 22.8946 8.37639C23.1416 7.88241 22.9414 7.28174 22.4474 7.03475L12.7154 2.16875C12.4935 2.05795 12.2483 2 12.0002 2C11.7522 2 11.5075 2.05768 11.2856 2.16848L1.55301 7.03475C1.05903 7.28174 0.858803 7.88241 1.10579 8.37639C1.35278 8.87037 1.95345 9.0706 2.44743 8.82361L12.0002 4.04721ZM4.00022 9.92918C4.5525 9.92918 5.00022 10.3769 5.00022 10.9292V18.9292C5.00022 19.1944 5.10558 19.4487 5.29311 19.6363C5.48065 19.8238 5.735 19.9292 6.00022 19.9292H18.0002C18.2654 19.9292 18.5198 19.8238 18.7073 19.6363C18.8949 19.4487 19.0002 19.1944 19.0002 18.9292V10.9292C19.0002 10.3769 19.4479 9.92918 20.0002 9.92918C20.5525 9.92918 21.0002 10.3769 21.0002 10.9292V18.9292C21.0002 19.7248 20.6841 20.4879 20.1215 21.0505C19.5589 21.6131 18.7959 21.9292 18.0002 21.9292H6.00022C5.20457 21.9292 4.44151 21.6131 3.8789 21.0505C3.31629 20.4879 3.00022 19.7248 3.00022 18.9292V10.9292C3.00022 10.3769 3.44793 9.92918 4.00022 9.92918ZM12.0002 11.9292C12.5525 11.9292 13.0002 12.3769 13.0002 12.9292V16.9292C13.0002 17.4815 12.5525 17.9292 12.0002 17.9292C11.4479 17.9292 11.0002 17.4815 11.0002 16.9292V12.9292C11.0002 12.3769 11.4479 11.9292 12.0002 11.9292Z"/>
</svg>
