<svg width="24" height="24" viewBox="0 0 24 24" xmlns="http://www.w3.org/2000/svg">
<path fill-rule="evenodd" clip-rule="evenodd" d="M2.09207 4.34207C2.63124 3.8029 3.3625 3.5 4.125 3.5H13.125C13.8875 3.5 14.6188 3.8029 15.1579 4.34207C15.6971 4.88124 16 5.6125 16 6.375V8.25C16 8.80228 15.5523 9.25 15 9.25C14.4477 9.25 14 8.80228 14 8.25V6.375C14 6.14294 13.9078 5.92038 13.7437 5.75628C13.5796 5.59219 13.3571 5.5 13.125 5.5H4.125C3.89294 5.5 3.67038 5.59219 3.50628 5.75628C3.34219 5.92038 3.25 6.14294 3.25 6.375V17.625C3.25 17.8571 3.34219 18.0796 3.50628 18.2437C3.67038 18.4078 3.89294 18.5 4.125 18.5H13.125C13.3571 18.5 13.5796 18.4078 13.7437 18.2437C13.9078 18.0796 14 17.8571 14 17.625V15.75C14 15.1977 14.4477 14.75 15 14.75C15.5523 14.75 16 15.1977 16 15.75V17.625C16 18.3875 15.6971 19.1188 15.1579 19.6579C14.6188 20.1971 13.8875 20.5 13.125 20.5H4.125C3.3625 20.5 2.63124 20.1971 2.09207 19.6579C1.5529 19.1188 1.25 18.3875 1.25 17.625V6.375C1.25 5.6125 1.5529 4.88124 2.09207 4.34207ZM17.2929 7.54289C17.6834 7.15237 18.3166 7.15237 18.7071 7.54289L22.4571 11.2929C22.8476 11.6834 22.8476 12.3166 22.4571 12.7071L18.7071 16.4571C18.3166 16.8476 17.6834 16.8476 17.2929 16.4571C16.9024 16.0666 16.9024 15.4334 17.2929 15.0429L19.3358 13H8.95312C8.40084 13 7.95312 12.5523 7.95312 12C7.95312 11.4477 8.40084 11 8.95312 11H19.3358L17.2929 8.95711C16.9024 8.56658 16.9024 7.93342 17.2929 7.54289Z" />
</svg>
