<svg width="24" height="24" viewBox="0 0 24 24"  xmlns="http://www.w3.org/2000/svg">
<path fill-rule="evenodd" clip-rule="evenodd" d="M5 8C4.73478 8 4.48043 8.10536 4.29289 8.29289C4.10536 8.48043 4 8.73478 4 9V18C4 18.2652 4.10536 18.5196 4.29289 18.7071C4.48043 18.8946 4.73478 19 5 19H19C19.2652 19 19.5196 18.8946 19.7071 18.7071C19.8946 18.5196 20 18.2652 20 18V9C20 8.73478 19.8946 8.48043 19.7071 8.29289C19.5196 8.10536 19.2652 8 19 8H5ZM2.87868 6.87868C3.44129 6.31607 4.20435 6 5 6H19C19.7957 6 20.5587 6.31607 21.1213 6.87868C21.6839 7.44129 22 8.20435 22 9V18C22 18.7957 21.6839 19.5587 21.1213 20.1213C20.5587 20.6839 19.7957 21 19 21H5C4.20435 21 3.44129 20.6839 2.87868 20.1213C2.31607 19.5587 2 18.7956 2 18V9C2 8.20435 2.31607 7.44129 2.87868 6.87868Z" />
<path fill-rule="evenodd" clip-rule="evenodd" d="M15.2275 2.70474C15.6717 2.58636 16.1373 2.57166 16.5881 2.66178C17.0389 2.7519 17.463 2.94444 17.8276 3.22451C18.1922 3.50458 18.4875 3.86471 18.6908 4.27707C18.8941 4.68943 18.9999 5.143 19 5.60274V7.00002H17V5.6033C17 5.60321 17 5.60339 17 5.6033C16.9999 5.45014 16.9647 5.29878 16.8969 5.16141C16.8292 5.02395 16.7307 4.90391 16.6092 4.81055C16.4877 4.7172 16.3463 4.65302 16.196 4.62298C16.0458 4.59295 15.8907 4.59783 15.7426 4.63726C15.7426 4.63727 15.7427 4.63725 15.7426 4.63726L4.74264 7.57026C4.52966 7.62702 4.34127 7.75258 4.20699 7.92736C4.07272 8.10214 3.99995 8.31639 4 8.5368V9.00002H2V8.53724C2 8.53717 2 8.53732 2 8.53724C1.9999 7.8761 2.21821 7.23322 2.62098 6.70893C3.02378 6.18462 3.5885 5.80806 4.22736 5.63778C4.22732 5.63779 4.22741 5.63777 4.22736 5.63778L15.2275 2.70474Z" />
<path fill-rule="evenodd" clip-rule="evenodd" d="M13 14C13 13.4477 13.4477 13 14 13H16C16.5523 13 17 13.4477 17 14C17 14.5523 16.5523 15 16 15H14C13.4477 15 13 14.5523 13 14Z" />
</svg>
