<svg width="22" height="22" viewBox="0 0 22 22" xmlns="http://www.w3.org/2000/svg">
<path fill-rule="evenodd" clip-rule="evenodd" d="M11 2C6.02944 2 2 6.02944 2 11C2 15.9706 6.02944 20 11 20C15.9706 20 20 15.9706 20 11C20 6.02944 15.9706 2 11 2ZM0 11C0 4.92487 4.92487 0 11 0C17.0751 0 22 4.92487 22 11C22 17.0751 17.0751 22 11 22C4.92487 22 0 17.0751 0 11Z" />
<path fill-rule="evenodd" clip-rule="evenodd" d="M11 4C11.5523 4 12 4.44772 12 5V5.11342C13.6318 5.48669 15 6.75357 15 8.5C15 9.05228 14.5523 9.5 14 9.5C13.4477 9.5 13 9.05228 13 8.5C13 8.03507 12.6494 7.48698 12 7.19931V10.1134C13.6318 10.4867 15 11.7536 15 13.5C15 15.2464 13.6318 16.5133 12 16.8866V17C12 17.5523 11.5523 18 11 18C10.4477 18 10 17.5523 10 17V16.8866C8.36817 16.5133 7 15.2464 7 13.5C7 12.9477 7.44772 12.5 8 12.5C8.55228 12.5 9 12.9477 9 13.5C9 13.9649 9.35056 14.513 10 14.8007V11.8866C8.36817 11.5133 7 10.2464 7 8.5C7 6.75357 8.36817 5.48669 10 5.11342V5C10 4.44772 10.4477 4 11 4ZM10 7.19931C9.35056 7.48698 9 8.03507 9 8.5C9 8.96493 9.35056 9.51302 10 9.80069V7.19931ZM12 12.1993V14.8007C12.6494 14.513 13 13.9649 13 13.5C13 13.0351 12.6494 12.487 12 12.1993Z" />
</svg>
