<svg width="24" height="24" viewBox="0 0 24 24" xmlns="http://www.w3.org/2000/svg">
<path fill-rule="evenodd" clip-rule="evenodd" d="M7.69571 5C5.60662 5 3.91309 6.69354 3.91309 8.78262C3.91309 10.8717 5.60662 12.5652 7.69571 12.5652C9.78479 12.5652 11.4783 10.8717 11.4783 8.78262C11.4783 6.69354 9.78479 5 7.69571 5ZM1.91309 8.78262C1.91309 5.58897 4.50205 3 7.69571 3C10.8894 3 13.4783 5.58897 13.4783 8.78262C13.4783 11.9763 10.8894 14.5652 7.69571 14.5652C4.50205 14.5652 1.91309 11.9763 1.91309 8.78262Z" />
<path fill-rule="evenodd" clip-rule="evenodd" d="M2.25401 14.8193C3.69723 13.376 5.65465 12.5652 7.69567 12.5652C9.73669 12.5652 11.6941 13.376 13.1373 14.8193C14.5805 16.2625 15.3913 18.2199 15.3913 20.2609C15.3913 20.8132 14.9436 21.2609 14.3913 21.2609C13.8391 21.2609 13.3913 20.8132 13.3913 20.2609C13.3913 18.7503 12.7913 17.3016 11.7231 16.2335C10.655 15.1653 9.20626 14.5652 7.69567 14.5652C6.18508 14.5652 4.73637 15.1653 3.66822 16.2335C2.60008 17.3016 2 18.7503 2 20.2609C2 20.8132 1.55228 21.2609 1 21.2609C0.447715 21.2609 -1.19209e-07 20.8132 0 20.2609C2.98023e-07 18.2199 0.810792 16.2625 2.25401 14.8193Z" />
<path fill-rule="evenodd" clip-rule="evenodd" d="M21.5085 6.25967C21.9359 7.14123 22.1324 8.11694 22.0794 9.09524C22.0265 10.0735 21.7258 11.0223 21.2057 11.8526C20.6855 12.6828 19.963 13.3673 19.1058 13.8418C18.2487 14.3163 17.285 14.5652 16.3053 14.5652C15.753 14.5652 15.3053 14.1175 15.3053 13.5652C15.3053 13.013 15.753 12.5652 16.3053 12.5652C16.9461 12.5652 17.5765 12.4024 18.1372 12.092C18.6979 11.7817 19.1706 11.3339 19.5108 10.7908C19.851 10.2477 20.0477 9.62706 20.0824 8.98712C20.117 8.34718 19.9885 7.70893 19.7089 7.13227C19.4293 6.55561 19.0077 6.05944 18.4838 5.69034C17.9599 5.32124 17.3508 5.0913 16.7137 5.02211C16.0765 4.95292 15.4323 5.04674 14.8413 5.29477C14.3321 5.50852 13.746 5.26896 13.5322 4.75972C13.3185 4.25047 13.558 3.66437 14.0673 3.45063C14.9707 3.07146 15.9556 2.92803 16.9296 3.0338C17.9036 3.13958 18.8347 3.49109 19.6357 4.05535C20.4366 4.61961 21.081 5.37811 21.5085 6.25967Z" />
<path fill-rule="evenodd" clip-rule="evenodd" d="M15.3037 13.5652C15.3037 13.013 15.7514 12.5652 16.3037 12.5652C18.3447 12.5652 20.3022 13.376 21.7454 14.8193C23.1886 16.2625 23.9994 18.2199 23.9994 20.2609C23.9994 20.8132 23.5517 21.2609 22.9994 21.2609C22.4471 21.2609 21.9994 20.8132 21.9994 20.2609C21.9994 18.7503 21.3993 17.3016 20.3312 16.2335C19.263 15.1653 17.8143 14.5652 16.3037 14.5652C15.7514 14.5652 15.3037 14.1175 15.3037 13.5652Z" />
</svg>
