<svg width="24" height="25" viewBox="0 0 24 25" xmlns="http://www.w3.org/2000/svg">
<path fill-rule="evenodd" clip-rule="evenodd" d="M8.46447 3.96447C9.40215 3.02678 10.6739 2.5 12 2.5C13.3261 2.5 14.5979 3.02678 15.5355 3.96447C16.4732 4.90215 17 6.17392 17 7.5C17 8.82608 16.4732 10.0979 15.5355 11.0355C14.5979 11.9732 13.3261 12.5 12 12.5C10.6739 12.5 9.40215 11.9732 8.46447 11.0355C7.52678 10.0979 7 8.82608 7 7.5C7 6.17392 7.52678 4.90215 8.46447 3.96447ZM12 4.5C11.2044 4.5 10.4413 4.81607 9.87868 5.37868C9.31607 5.94129 9 6.70435 9 7.5C9 8.29565 9.31607 9.05871 9.87868 9.62132C10.4413 10.1839 11.2044 10.5 12 10.5C12.7956 10.5 13.5587 10.1839 14.1213 9.62132C14.6839 9.05871 15 8.29565 15 7.5C15 6.70435 14.6839 5.94129 14.1213 5.37868C13.5587 4.81607 12.7956 4.5 12 4.5ZM17.7929 14.2929C18.1834 13.9024 18.8166 13.9024 19.2071 14.2929C20.0073 15.0931 21.2474 15.5 22 15.5C22.5523 15.5 23 15.9477 23 16.5C23 18.7164 22.3048 20.4269 21.425 21.6C20.9881 22.1826 20.5009 22.6388 20.0234 22.9571C19.5746 23.2563 19.0336 23.5 18.5 23.5C17.9664 23.5 17.4254 23.2563 16.9766 22.9571C16.4991 22.6388 16.0119 22.1826 15.575 21.6C14.6952 20.4269 14 18.7164 14 16.5C14 15.9477 14.4477 15.5 15 15.5C15.7526 15.5 16.9927 15.0931 17.7929 14.2929ZM16.0473 17.3818C16.194 18.7161 16.6621 19.7162 17.175 20.4C17.4881 20.8174 17.8134 21.1112 18.0859 21.2929C18.3225 21.4507 18.4636 21.4884 18.497 21.4973C18.4981 21.4976 18.4991 21.4978 18.5 21.4981C18.5009 21.4978 18.5019 21.4976 18.503 21.4973C18.5364 21.4884 18.6775 21.4507 18.9141 21.2929C19.1866 21.1112 19.5119 20.8174 19.825 20.4C20.3379 19.7162 20.806 18.7161 20.9527 17.3818C20.1465 17.2103 19.2662 16.8518 18.5 16.304C17.7338 16.8518 16.8535 17.2103 16.0473 17.3818ZM10 16.5C9.20435 16.5 8.44129 16.8161 7.87868 17.3787C7.31607 17.9413 7 18.7043 7 19.5V21.5C7 22.0523 6.55228 22.5 6 22.5C5.44772 22.5 5 22.0523 5 21.5V19.5C5 18.1739 5.52678 16.9021 6.46447 15.9645C7.40215 15.0268 8.67392 14.5 10 14.5H12C12.5523 14.5 13 14.9477 13 15.5C13 16.0523 12.5523 16.5 12 16.5H10Z"/>
</svg>
