<?xml version="1.0" encoding="utf-8"?><svg viewBox="0 0 48 48" xmlns="http://www.w3.org/2000/svg" xmlns:xlink="http://www.w3.org/1999/xlink"><style>:root>svg{display:none}:root>svg:target{display:block}</style><svg viewBox="0 0 24 24" id="arrow" xmlns="http://www.w3.org/2000/svg"><path fill-rule="evenodd" clip-rule="evenodd" d="M7.293 2.293a1 1 0 0 1 1.414 0l9 9a1 1 0 0 1 0 1.414l-9 9a1 1 0 0 1-1.414-1.414L15.586 12 7.293 3.707a1 1 0 0 1 0-1.414Z"/></svg><svg viewBox="0 0 25 25" id="basket" xmlns="http://www.w3.org/2000/svg"><path fill-rule="evenodd" clip-rule="evenodd" d="M10.227 3.333a.24.24 0 0 0-.168.067.195.195 0 0 0-.059.137v2.444h5V3.537a.192.192 0 0 0-.06-.137.24.24 0 0 0-.167-.067h-4.546Zm6.591 2.648V3.537c0-.547-.22-1.067-.606-1.448a2.05 2.05 0 0 0-1.44-.589h-4.545a2.05 2.05 0 0 0-1.439.59c-.386.38-.606.9-.606 1.447v2.444H3.409a.913.913 0 0 0-.909.917c0 .506.407.917.91.917h.3l1.063 12.57c.011.829.35 1.617.939 2.197.598.59 1.405.918 2.243.918h9.09c.838 0 1.645-.328 2.243-.918.589-.58.928-1.368.939-2.197l1.063-12.57h.3c.503 0 .91-.41.91-.917a.913.913 0 0 0-.91-.917h-4.772ZM5.535 7.815l1.053 12.45a.929.929 0 0 1 .003.078c0 .344.138.679.392.929s.603.395.972.395h9.09c.369 0 .718-.145.972-.395.253-.25.392-.585.392-.93a.92.92 0 0 1 .003-.077l1.053-12.45H5.535Zm4.692 2.648c.502 0 .91.41.91.917v6.722a.913.913 0 0 1-.91.916.913.913 0 0 1-.909-.916V11.38c0-.507.407-.917.91-.917Zm4.546 0c.502 0 .909.41.909.917v6.722a.913.913 0 0 1-.91.916.913.913 0 0 1-.908-.916V11.38c0-.507.407-.917.909-.917Z"/></svg><svg viewBox="0 0 24 25" id="download" xmlns="http://www.w3.org/2000/svg"><path fill-rule="evenodd" clip-rule="evenodd" d="M12 2.713a1 1 0 0 1 1 1v12.025a1 1 0 1 1-2 0V3.713a1 1 0 0 1 1-1Z"/><path fill-rule="evenodd" clip-rule="evenodd" d="M6.668 10.787a1 1 0 0 1 1.414 0L12 14.705l3.918-3.918a1 1 0 0 1 1.414 1.414l-3.97 3.97a1.937 1.937 0 0 1-2.724 0l-.004-.004-3.966-3.966a1 1 0 0 1 0-1.414Z"/><path fill-rule="evenodd" clip-rule="evenodd" d="M2.75 13.35a1 1 0 0 1 1 1v4.625a1.313 1.313 0 0 0 1.313 1.313h13.874a1.313 1.313 0 0 0 1.313-1.313V14.35a1 1 0 0 1 2 0v4.625a3.313 3.313 0 0 1-3.313 3.313H5.063a3.313 3.313 0 0 1-3.313-3.313V14.35a1 1 0 0 1 1-1Z"/></svg><svg viewBox="0 0 24 24" id="graph" xmlns="http://www.w3.org/2000/svg"><path fill-rule="evenodd" clip-rule="evenodd" d="M3 2a1 1 0 0 1 1 1v16a1 1 0 0 0 1 1h16a1 1 0 1 1 0 2H5a3 3 0 0 1-3-3V3a1 1 0 0 1 1-1Z"/><path fill-rule="evenodd" clip-rule="evenodd" d="M21.707 7.293a1 1 0 0 1 0 1.414l-6 6a1 1 0 0 1-1.414 0L11 11.414l-3.293 3.293a1 1 0 0 1-1.414-1.414l4-4a1 1 0 0 1 1.414 0L15 12.586l5.293-5.293a1 1 0 0 1 1.414 0Z"/><path fill-rule="evenodd" clip-rule="evenodd" d="M17 8a1 1 0 0 1 1-1h3a1 1 0 0 1 1 1v3a1 1 0 1 1-2 0V9h-2a1 1 0 0 1-1-1Z"/></svg><svg viewBox="0 0 24 24" id="home" xmlns="http://www.w3.org/2000/svg"><path fill-rule="evenodd" clip-rule="evenodd" d="m12 4.047 9.553 4.777a1 1 0 1 0 .894-1.79L12.715 2.17a1.602 1.602 0 0 0-1.43 0L1.554 7.034a1 1 0 0 0 .894 1.789L12 4.047ZM4 9.93a1 1 0 0 1 1 1v8a1 1 0 0 0 1 1h12a1 1 0 0 0 1-1v-8a1 1 0 1 1 2 0v8a3 3 0 0 1-3 3H6a3 3 0 0 1-3-3v-8a1 1 0 0 1 1-1Zm8 2a1 1 0 0 1 1 1v4a1 1 0 1 1-2 0v-4a1 1 0 0 1 1-1Z"/></svg><svg viewBox="0 0 24 24" id="logout" xmlns="http://www.w3.org/2000/svg"><path fill-rule="evenodd" clip-rule="evenodd" d="M2.092 4.342c.54-.54 1.27-.842 2.033-.842h9A2.875 2.875 0 0 1 16 6.375V8.25a1 1 0 1 1-2 0V6.375a.875.875 0 0 0-.875-.875h-9a.875.875 0 0 0-.875.875v11.25a.875.875 0 0 0 .875.875h9a.875.875 0 0 0 .875-.875V15.75a1 1 0 1 1 2 0v1.875a2.875 2.875 0 0 1-2.875 2.875h-9a2.875 2.875 0 0 1-2.875-2.875V6.375c0-.763.303-1.494.842-2.033Zm15.2 3.2a1 1 0 0 1 1.415 0l3.75 3.75a1 1 0 0 1 0 1.415l-3.75 3.75a1 1 0 0 1-1.414-1.414L19.336 13H8.953a1 1 0 1 1 0-2h10.383l-2.043-2.043a1 1 0 0 1 0-1.414Z"/></svg><svg viewBox="0 0 24 24" id="money" xmlns="http://www.w3.org/2000/svg"><path fill-rule="evenodd" clip-rule="evenodd" d="M5 8a1 1 0 0 0-1 1v9a1 1 0 0 0 1 1h14a1 1 0 0 0 1-1V9a1 1 0 0 0-1-1H5ZM2.879 6.879A3 3 0 0 1 5 6h14a3 3 0 0 1 3 3v9a3 3 0 0 1-3 3H5a3 3 0 0 1-3-3V9a3 3 0 0 1 .879-2.121Z"/><path fill-rule="evenodd" clip-rule="evenodd" d="M15.227 2.705A3 3 0 0 1 19 5.603V7h-2V5.603a1 1 0 0 0-1.257-.966l-11 2.933A1 1 0 0 0 4 8.537V9H2v-.463a3 3 0 0 1 2.227-2.9l11-2.932ZM13 14a1 1 0 0 1 1-1h2a1 1 0 1 1 0 2h-2a1 1 0 0 1-1-1Z"/></svg><svg viewBox="0 0 48 48" id="oval-arrow" xmlns="http://www.w3.org/2000/svg"><circle opacity=".2" cx="24" cy="24" r="23.5"/><path fill-rule="evenodd" clip-rule="evenodd" d="M19.293 14.293a1 1 0 0 1 1.414 0l9 9a1 1 0 0 1 0 1.414l-9 9a1 1 0 0 1-1.414-1.414L27.586 24l-8.293-8.293a1 1 0 0 1 0-1.414Z"/></svg><svg viewBox="0 0 22 22" id="oval-dollar" xmlns="http://www.w3.org/2000/svg"><path fill-rule="evenodd" clip-rule="evenodd" d="M11 2a9 9 0 1 0 0 18 9 9 0 0 0 0-18ZM0 11C0 4.925 4.925 0 11 0s11 4.925 11 11-4.925 11-11 11S0 17.075 0 11Z"/><path fill-rule="evenodd" clip-rule="evenodd" d="M11 4a1 1 0 0 1 1 1v.113c1.632.374 3 1.64 3 3.387a1 1 0 1 1-2 0c0-.465-.35-1.013-1-1.3v2.913c1.632.374 3 1.64 3 3.387 0 1.746-1.368 3.013-3 3.387V17a1 1 0 1 1-2 0v-.113c-1.632-.374-3-1.64-3-3.387a1 1 0 1 1 2 0c0 .465.35 1.013 1 1.3v-2.913c-1.632-.374-3-1.64-3-3.387 0-1.746 1.368-3.013 3-3.387V5a1 1 0 0 1 1-1Zm-1 3.2c-.65.287-1 .835-1 1.3 0 .465.35 1.013 1 1.3V7.2Zm2 5v2.6c.65-.287 1-.835 1-1.3 0-.465-.35-1.013-1-1.3Z"/></svg><svg viewBox="0 0 25 25" id="pencil" xmlns="http://www.w3.org/2000/svg"><path fill-rule="evenodd" clip-rule="evenodd" d="M20.36 3.618a1.868 1.868 0 0 0-2.097.528.998.998 0 0 1-.056.061L16.914 5.5 19.5 8.086l1.293-1.293a.88.88 0 0 1 .072-.065 1.833 1.833 0 0 0 .665-1.319 1.812 1.812 0 0 0-.533-1.375 1.852 1.852 0 0 0-.637-.416ZM18.086 9.5 15.5 6.914 4.895 17.52l-.97 3.556 3.556-.97L18.086 9.5Zm-3.293-4.707-11.5 11.5a1 1 0 0 0-.258.444l-1.5 5.5a1 1 0 0 0 1.228 1.228l5.5-1.5a1 1 0 0 0 .444-.258L22.175 8.24a3.832 3.832 0 0 0 1.352-2.732 3.81 3.81 0 0 0-1.116-2.888 3.851 3.851 0 0 0-2.889-1.125 3.866 3.866 0 0 0-2.756 1.326l-1.973 1.973Z"/></svg><svg viewBox="0 0 16 17" id="plus" xmlns="http://www.w3.org/2000/svg"><path d="M1.333 8.5H8m0 0h6.666M8 8.5V1.833M8 8.5v6.667"/></svg><svg viewBox="0 0 16 17" id="small-arrow" xmlns="http://www.w3.org/2000/svg"><path fill-rule="evenodd" clip-rule="evenodd" d="M11.138 2.029a.667.667 0 0 0-.943 0l-6 6a.667.667 0 0 0 0 .942l6 6a.667.667 0 1 0 .943-.942L5.609 8.5l5.529-5.529a.667.667 0 0 0 0-.942Z"/></svg><svg viewBox="0 0 24 25" id="user-shield" xmlns="http://www.w3.org/2000/svg"><path fill-rule="evenodd" clip-rule="evenodd" d="M8.464 3.964a5 5 0 1 1 7.071 7.071 5 5 0 0 1-7.07-7.07ZM12 4.5a3 3 0 1 0 0 6 3 3 0 0 0 0-6Zm5.793 9.793a1 1 0 0 1 1.414 0c.8.8 2.04 1.207 2.793 1.207a1 1 0 0 1 1 1c0 2.216-.695 3.927-1.575 5.1a5.837 5.837 0 0 1-1.402 1.357c-.448.3-.99.543-1.523.543-.534 0-1.075-.244-1.523-.543a5.837 5.837 0 0 1-1.402-1.357C14.695 20.427 14 18.716 14 16.5a1 1 0 0 1 1-1c.753 0 1.993-.407 2.793-1.207Zm-1.746 3.089c.147 1.334.615 2.334 1.128 3.018.313.417.638.711.91.893.238.158.379.195.412.204l.003.001h.003a1.38 1.38 0 0 0 .411-.205c.273-.182.598-.476.911-.893.513-.684.981-1.684 1.128-3.018a6.696 6.696 0 0 1-2.453-1.078 6.696 6.696 0 0 1-2.453 1.078ZM10 16.5a3 3 0 0 0-3 3v2a1 1 0 1 1-2 0v-2a5 5 0 0 1 5-5h2a1 1 0 1 1 0 2h-2Z"/></svg><svg viewBox="0 0 24 24" id="users" xmlns="http://www.w3.org/2000/svg"><path fill-rule="evenodd" clip-rule="evenodd" d="M7.696 5a3.783 3.783 0 1 0 0 7.565 3.783 3.783 0 0 0 0-7.565ZM1.913 8.783a5.783 5.783 0 1 1 11.565 0 5.783 5.783 0 0 1-11.565 0Z"/><path fill-rule="evenodd" clip-rule="evenodd" d="M2.254 14.82a7.695 7.695 0 0 1 13.137 5.44 1 1 0 1 1-2 0A5.695 5.695 0 1 0 2 20.26a1 1 0 1 1-2 0c0-2.04.81-3.998 2.254-5.44Zm19.255-8.56a5.783 5.783 0 0 1-5.204 8.305 1 1 0 1 1 0-2 3.782 3.782 0 1 0-1.464-7.27 1 1 0 0 1-.774-1.844A5.783 5.783 0 0 1 21.51 6.26Z"/><path fill-rule="evenodd" clip-rule="evenodd" d="M15.304 13.565a1 1 0 0 1 1-1 7.696 7.696 0 0 1 7.695 7.696 1 1 0 1 1-2 0 5.696 5.696 0 0 0-5.695-5.696 1 1 0 0 1-1-1Z"/></svg></svg>